<?xml version="1.0" standalone="no"?>
<!DOCTYPE svg PUBLIC "-//W3C//DTD SVG 20010904//EN"
 "http://www.w3.org/TR/2001/REC-SVG-20010904/DTD/svg10.dtd">
<svg version="1.0" xmlns="http://www.w3.org/2000/svg"
 width="700.000000pt" height="700.000000pt" viewBox="0 0 700.000000 700.000000"
 preserveAspectRatio="xMidYMid meet">
<metadata>
Created by potrace 1.14, written by Peter Selinger 2001-2017
</metadata>
<g transform="translate(0.000000,700.000000) scale(0.100000,-0.100000)"
fill="#000000" stroke="none">
<path d="M615 6985 c-309 -67 -549 -312 -604 -615 -9 -50 -8 -243 1 -280 5
-16 12 -43 31 -105 14 -51 71 -158 110 -210 80 -106 219 -212 332 -252 28 -10
53 -22 56 -26 3 -4 6 -905 6 -2002 l0 -1993 -56 -22 c-200 -76 -373 -253 -445
-455 -36 -103 -45 -167 -41 -290 4 -126 25 -208 80 -317 92 -181 248 -314 445
-381 70 -24 107 -29 225 -32 179 -4 334 46 478 155 104 79 206 217 252 341
l16 46 1999 0 1998 0 21 -54 c81 -211 265 -386 481 -456 68 -23 106 -28 215
-32 367 -14 693 243 769 605 14 65 14 242 1 310 -48 245 -239 470 -476 560
l-56 22 0 1998 0 1998 66 26 c173 68 339 226 412 391 61 142 83 333 53 475
-36 169 -141 340 -272 443 -143 111 -276 158 -463 162 -103 3 -237 -18 -286
-44 -10 -5 -36 -17 -58 -27 -159 -68 -319 -241 -385 -415 l-22 -56 -1998 0
-1998 0 -22 56 c-53 139 -171 286 -295 366 -53 34 -225 110 -225 100 0 -3 -12
0 -27 6 -43 17 -249 19 -318 4z"/>
</g>
</svg>
